<?xml version="1.0" encoding="UTF-8" standalone="no"?>
<svg
   id="Ebene_1"
   viewBox="0 0 200.00001 200"
   version="1.1"
   sodipodi:docname="favicon.svg"
   inkscape:version="1.3 (0e150ed6c4, 2023-07-21)"
   width="200"
   height="200"
   xmlns:inkscape="http://www.inkscape.org/namespaces/inkscape"
   xmlns:sodipodi="http://sodipodi.sourceforge.net/DTD/sodipodi-0.dtd"
   xmlns="http://www.w3.org/2000/svg"
   xmlns:svg="http://www.w3.org/2000/svg">
  <sodipodi:namedview
     id="namedview2"
     pagecolor="#c9c9c9"
     bordercolor="#000000"
     borderopacity="0.25"
     inkscape:showpageshadow="2"
     inkscape:pageopacity="0.0"
     inkscape:pagecheckerboard="0"
     inkscape:deskcolor="#d1d1d1"
     inkscape:zoom="1.4142136"
     inkscape:cx="70.003571"
     inkscape:cy="131.87541"
     inkscape:window-width="1920"
     inkscape:window-height="1009"
     inkscape:window-x="1912"
     inkscape:window-y="-8"
     inkscape:window-maximized="1"
     inkscape:current-layer="Ebene_1" />
  <defs
     id="defs1">
    <style
       id="style1">.cls-1{fill:#231f20;stroke-width:0px;}</style>
  </defs>
  <rect
     style="fill:#212529;fill-opacity:1;stroke-width:0.98;stroke-dasharray:none"
     id="rect1"
     width="200"
     height="200"
     x="2"
     y="0"
     ry="100"
     rx="100" />
  <path
     class="cls-1"
     d="m 105.505,12.215 -3.99,13.9 c -1.790001,6.26 -7.570001,16.24 -14.780001,18.83 -1.98,0.71 -4.59,1.09 -7.53,1.09 -7.29,0 -15.55,-2.3 -19.64,-5.48 l -7.37,-5.71 2.94,8.85 c 3.52,10.59 3.17,18.56 -1.07,24.37 -1.96,2.69 -5.41,5.77 -14.74,5.77 h -7.89 l 6.09,5.02 0.74,0.61 c 6.18,5.09 13.19,10.85 13.46,19.2 0.31,9.87 -1.75,17.32 -12.98,23.93 l -14.82,8.72 16.84,-3.51 c 2.63,-0.55 4.88,-0.82 6.87,-0.82 5.4,0 8.24,2.07 10.84,5.18 3.71,4.44 6.14,14.88 3.59,24 l -2.92,10.47 7.66,-7.71 c 6.31,-6.34 12.27,-10.56 20.91,-10.56 0.51,0 1.04,0.02 1.56,0.05 8.5,0.5 14.960001,7.88 20.930001,23.92 l 5.76,15.48 -0.27,-16.52 c -0.25,-15.15 2.49,-25.52 7.52,-28.46 3.67,-2.15 8.51,-3.33 13.62,-3.33 4.62,0 9.4,0.92 14.21,2.75 l 12.11,4.58 -9.09,-9.23 c -8.23,-8.36 -10.56,-15.11 -7.8,-22.6 3.54,-9.61 11.39,-15.42 23.33,-17.27 l 14.48,-2.25 -14.27,-3.32 c -0.89,-0.21 -1.78,-0.41 -2.65,-0.61 -12.51,-2.87 -21.55,-4.94 -25.39,-13.39 -2.83,-6.23 0.67,-15.04 10.41,-26.18 l 8.43,-9.65 -11.72,5.19 c -6.52,2.89 -13.33,4.48 -19.19,4.48 -4.52,0 -8.33,-0.9 -11.32,-2.67 -6.98,-4.13 -10.46,-14.85 -11.32,-22.77 l -1.56,-14.38 v 0 z m -2.84999,34.81 c 2.07,5.52 5.61,11.33 10.83,14.41 2.93,1.73 6.42,2.61 10.38,2.61 3.07,0 6.48,-0.53 10.2,-1.59 -4.48,7.66 -5.62,15.13 -2.98,20.93 3.21,7.06 9.09,9.91 16.24,11.9 -4.87,2.55 -9.59,7.03 -12.59,15.16 -2.36,6.39 -1.98,12.36 1.18,18.09 -2.03,-0.36 -4,-0.54 -5.89,-0.54 -4.64,0 -8.83,1.07 -12.45,3.19 -4.44,2.59 -7.55,8.61 -8.94,16.85 -3.85,-7.1 -8.940009,-12.41 -16.700009,-12.86 -0.53,-0.03 -1.07,-0.05 -1.6,-0.05 -5.710001,0 -11.090001,1.8 -16.300001,5.48 0.24,-6.71 -1.42,-13.31 -4.600001,-17.12 -2.86,-3.42 -6.25,-5.25 -10.78,-5.74 4.86,-5.28 6.82,-11.32 6.57,-19.43 -0.22,-6.99 -4.42,-12.19 -8.81,-16.24 4.24,-1 7.42,-3.06 9.78,-6.29 3.66,-5.02 4.770001,-11.22 3.33,-18.85 4.070001,1.53 8.960001,2.44 13.630001,2.44 3.12,0 5.85,-0.41 8.120001,-1.23 5.34,-1.92 9.030009,-6.72 11.400009,-11.12"
     id="path1"
     style="display:inline;fill:#ffffff;fill-opacity:1"
     sodipodi:nodetypes="cccsccccscccccccsccccscccccsccccccccccccsccccc" />
</svg>
