<?xml version="1.0" encoding="UTF-8" standalone="no"?>
<svg
   id="Ebene_1"
   viewBox="0 0 323.71999 175.61"
   version="1.1"
   sodipodi:docname="logo.svg"
   inkscape:version="1.3 (0e150ed6c4, 2023-07-21)"
   width="323.72"
   height="175.61"
   xmlns:inkscape="http://www.inkscape.org/namespaces/inkscape"
   xmlns:sodipodi="http://sodipodi.sourceforge.net/DTD/sodipodi-0.dtd"
   xmlns="http://www.w3.org/2000/svg"
   xmlns:svg="http://www.w3.org/2000/svg">
  <sodipodi:namedview
     id="namedview8"
     pagecolor="#d8d8d8"
     bordercolor="#000000"
     borderopacity="0.25"
     inkscape:showpageshadow="2"
     inkscape:pageopacity="0.0"
     inkscape:pagecheckerboard="0"
     inkscape:deskcolor="#d1d1d1"
     inkscape:zoom="2.0085771"
     inkscape:cx="161.80609"
     inkscape:cy="84.388098"
     inkscape:window-width="1920"
     inkscape:window-height="1009"
     inkscape:window-x="1912"
     inkscape:window-y="-8"
     inkscape:window-maximized="1"
     inkscape:current-layer="Ebene_1" />
  <defs
     id="defs1">
    <style
       id="style1">.cls-1{fill:#231f20;stroke-width:0px;}</style>
  </defs>
  <path
     class="cls-1"
     d="m 85.66,57.92 c -2.92,-2.04 -7.26,-3.06 -13.02,-3.06 -4.81,0 -8.71,0.9 -11.72,2.7 -3.01,1.8 -5.01,3.87 -6.01,6.22 -1,2.35 -1.5,5.68 -1.5,10.01 v 3.75 h 15.98 v -5.86 c 0,-3.12 0.14,-5.05 0.42,-5.8 0.28,-0.74 1,-1.12 2.15,-1.12 1.01,0 1.73,0.44 2.17,1.33 0.44,0.89 0.65,2.79 0.65,5.71 0,2.33 -0.2,3.88 -0.59,4.64 -0.39,0.76 -3.39,2.23 -8.98,4.43 -5.23,2.02 -8.5,3.79 -9.82,5.31 -1.32,1.52 -1.98,4.37 -1.98,8.56 v 4.59 c 0,5.65 1.24,9.31 3.73,10.98 2.49,1.67 5.22,2.51 8.2,2.51 2.28,0 4.24,-0.5 5.88,-1.5 1.64,-1 2.99,-2.5 4.03,-4.5 v 4.98 H 91.82 V 83.72 c 0,-9.25 -0.3,-15.35 -0.88,-18.32 -0.59,-2.96 -2.35,-5.47 -5.27,-7.5 z M 74.79,96.73 c 0,2.81 -0.16,4.55 -0.49,5.21 -0.33,0.66 -1.02,0.99 -2.09,0.99 -1.12,0 -1.88,-0.42 -2.25,-1.27 -0.38,-0.84 -0.57,-2.71 -0.57,-5.61 0,-2.53 0.22,-4.47 0.65,-5.82 0.44,-1.35 2.02,-3.02 4.74,-5.02 v 11.51 z"
     id="path1"
     style="fill:#ffffff;fill-opacity:1" />
  <path
     class="cls-1"
     d="m 300.87,70.4 h 19.49 v -5.93 h -7.69 c -1.89,0 -3.1,-0.06 -3.62,-0.18 -0.52,-0.11 -0.93,-0.43 -1.23,-0.94 -0.29,-0.51 -0.44,-1.31 -0.44,-2.39 h -6.86 c 0.11,1.64 1.08,2.88 2.92,3.74 l -2.56,-0.23 v 5.93 z"
     id="path2"
     style="fill:#ffffff;fill-opacity:1" />
  <path
     class="cls-1"
     d="m 285.73,57.15 c -2.09,-1.52 -4.63,-2.28 -7.61,-2.28 -1.94,0 -3.76,0.34 -5.46,1.01 -1.7,0.68 -3.28,1.69 -4.74,3.04 V 43.56 h -17.03 v 68.25 h 17.03 V 71.89 c 0,-2.84 0.18,-4.73 0.55,-5.69 0.36,-0.96 1.07,-1.43 2.11,-1.43 1.12,0 1.85,0.46 2.17,1.39 0.32,0.93 0.48,3.02 0.48,6.28 v 39.37 h 17.03 V 73.24 c 0,-5.26 -0.23,-8.87 -0.7,-10.85 -0.46,-1.98 -1.74,-3.73 -3.84,-5.25 z"
     id="path3"
     style="fill:#ffffff;fill-opacity:1" />
  <path
     class="cls-1"
     d="m 323.2,46.97 c -0.35,-1.01 -0.85,-1.8 -1.51,-2.37 -0.66,-0.57 -1.29,-0.9 -1.88,-0.99 -0.59,-0.09 -1.9,-0.14 -3.93,-0.14 h -15.01 v 5.52 l 1.47,0.42 c -0.61,0.48 -1.06,1.03 -1.37,1.64 -0.31,0.61 -0.46,1.29 -0.46,2.03 0,1.36 0.41,2.37 1.22,3.04 0.81,0.67 2.14,1 3.99,1 h 7.08 c 1.29,0 2.29,-0.13 2.99,-0.38 0.7,-0.26 1.27,-0.73 1.7,-1.42 0.43,-0.69 0.65,-1.57 0.65,-2.64 0,-0.62 -0.12,-1.21 -0.35,-1.77 -0.24,-0.56 -0.58,-1.1 -1.05,-1.61 h 1.47 c 0.84,0 1.4,0.07 1.66,0.22 0.26,0.15 0.4,0.45 0.4,0.9 0,0.62 -0.43,0.94 -1.29,0.94 v 5.76 c 1.88,-0.04 3.14,-0.63 3.78,-1.78 0.64,-1.14 0.96,-2.66 0.96,-4.55 0,-1.53 -0.17,-2.81 -0.52,-3.82 z m -8.91,4.06 c -0.26,0.11 -0.82,0.16 -1.7,0.16 h -6.55 c -0.82,0 -1.37,-0.07 -1.65,-0.21 -0.28,-0.14 -0.42,-0.38 -0.42,-0.73 0,-0.35 0.12,-0.58 0.37,-0.68 0.25,-0.1 0.81,-0.16 1.7,-0.16 h 6.03 c 1.11,0 1.82,0.06 2.13,0.18 0.31,0.12 0.47,0.37 0.47,0.77 0,0.34 -0.13,0.57 -0.39,0.67 z"
     id="path4"
     style="fill:#ffffff;fill-opacity:1" />
  <path
     class="cls-1"
     d="m 246.75,77 c 0,-5.25 -0.52,-9.32 -1.56,-12.18 -1.04,-2.87 -3.14,-5.24 -6.28,-7.12 -3.15,-1.88 -6.94,-2.82 -11.38,-2.82 -4.44,0 -8.26,0.95 -11.38,2.84 -3.12,1.9 -5.16,4.05 -6.11,6.47 -0.96,2.42 -1.43,6 -1.43,10.75 v 15.89 c 0,5.45 0.58,9.66 1.75,12.62 1.17,2.97 3.15,5.27 5.96,6.91 2.81,1.64 6.62,2.47 11.42,2.47 3.77,0 6.93,-0.6 9.48,-1.79 2.55,-1.19 4.63,-2.97 6.22,-5.31 1.59,-2.34 2.53,-4.64 2.83,-6.87 0.3,-2.23 0.46,-5.59 0.48,-10.05 h -15.18 v 6.66 c 0,2.89 -0.2,4.86 -0.61,5.9 -0.41,1.04 -1.19,1.56 -2.34,1.56 -0.98,0 -1.73,-0.5 -2.23,-1.5 -0.51,-1 -0.76,-2.49 -0.76,-4.49 V 70.55 c 0,-2.44 0.17,-4.02 0.51,-4.72 0.34,-0.7 1,-1.05 1.98,-1.05 0.98,0 1.66,0.4 2.02,1.2 0.36,0.8 0.55,2.33 0.55,4.57 V 77 Z"
     id="path5"
     style="fill:#ffffff;fill-opacity:1" />
  <path
     class="cls-1"
     d="m 192.86,79.15 c -3.71,-1.83 -6.16,-3.22 -7.36,-4.17 -1.2,-0.95 -1.91,-1.83 -2.15,-2.64 -0.24,-0.8 -0.36,-2.06 -0.36,-3.77 0,-1.26 0.24,-2.21 0.72,-2.84 0.48,-0.63 1.19,-0.95 2.15,-0.95 1.18,0 1.92,0.35 2.21,1.03 0.3,0.69 0.44,2.33 0.44,4.91 v 3.04 h 15.09 v -3.25 c 0,-2.81 -0.15,-4.87 -0.44,-6.2 -0.29,-1.32 -1.14,-2.75 -2.53,-4.3 -1.39,-1.55 -3.39,-2.79 -5.99,-3.73 -2.6,-0.94 -5.75,-1.41 -9.46,-1.41 -3.71,0 -7.02,0.58 -9.84,1.73 -2.82,1.15 -4.83,2.79 -6.01,4.91 -1.18,2.12 -1.77,5.42 -1.77,9.89 0,3.15 0.55,5.87 1.64,8.16 1.1,2.29 4.15,4.84 9.15,7.65 5.96,3.32 9.26,5.31 9.91,5.99 0.62,0.67 0.93,2.35 0.93,5.02 0,1.94 -0.24,3.21 -0.72,3.81 -0.48,0.61 -1.32,0.91 -2.53,0.91 -1.12,0 -1.88,-0.45 -2.26,-1.35 -0.38,-0.9 -0.57,-2.85 -0.57,-5.86 v -3.54 h -15.09 v 2.7 c 0,4.66 0.57,8.15 1.73,10.45 1.15,2.3 3.27,4.13 6.34,5.48 3.08,1.35 6.78,2.02 11.11,2.02 3.91,0 7.24,-0.63 10.01,-1.88 2.77,-1.25 4.74,-3.04 5.92,-5.35 1.18,-2.32 1.77,-5.75 1.77,-10.31 0,-4.07 -0.77,-7.18 -2.32,-9.32 -1.55,-2.14 -4.79,-4.41 -9.74,-6.83 z"
     id="path6"
     style="fill:#ffffff;fill-opacity:1" />
  <path
     class="cls-1"
     d="M 160.1,96.01 V 83.3 h 0.06 c 0,0 -0.06,-0.02 -0.06,-0.02 v -17.2 h 4.6 v -8.85 h -4.6 v -8.81 h -17.07 v 8.81 h -3.67 v 8.85 h 3.67 v 13.24 c -2.48,-0.57 -4.82,-1.11 -7.02,-1.68 V 55.88 h -17.03 v 12.14 c -0.41,-0.64 -0.79,-1.31 -1.13,-2.04 -2.83,-6.23 0.67,-15.04 10.41,-26.18 l 8.43,-9.65 -11.72,5.19 c -6.52,2.89 -13.33,4.48 -19.19,4.48 -4.52,0 -8.33,-0.9 -11.32,-2.67 C 87.48,33.02 84,22.3 83.14,14.38 L 81.58,0 77.59,13.9 c -1.79,6.26 -7.57,16.24 -14.78,18.83 -1.98,0.71 -4.59,1.09 -7.53,1.09 -7.29,0 -15.55,-2.3 -19.64,-5.48 l -7.37,-5.71 2.94,8.85 c 3.52,10.59 3.17,18.56 -1.07,24.37 -1.96,2.69 -5.41,5.77 -14.74,5.77 H 7.51 l 6.09,5.02 0.74,0.61 c 6.18,5.09 13.19,10.85 13.46,19.2 0.31,9.87 -1.75,17.32 -12.98,23.93 L 0,119.11 16.84,115.6 c 2.63,-0.55 4.88,-0.82 6.87,-0.82 5.41,0 8.24,2.07 10.84,5.18 3.71,4.44 6.14,14.88 3.59,24 l -2.92,10.47 7.66,-7.71 c 6.31,-6.34 12.27,-10.56 20.91,-10.56 0.51,0 1.04,0.02 1.56,0.05 8.5,0.5 14.96,7.88 20.93,23.92 l 5.76,15.48 -0.27,-16.52 c -0.25,-15.15 2.49,-25.52 7.52,-28.46 3.67,-2.15 8.51,-3.33 13.62,-3.33 4.62,0 9.4,0.92 14.21,2.75 l 12.11,4.58 -9.09,-9.23 c -4.85,-4.93 -7.64,-9.3 -8.56,-13.59 h 14.41 V 88.29 c 2.13,-0.95 4.47,-1.7 7.02,-2.26 v 8.45 c 0,5.56 0.15,9.1 0.46,10.6 0.31,1.5 1.1,2.84 2.36,4 1.26,1.16 2.73,1.91 4.38,2.23 1.66,0.32 4.43,0.48 8.3,0.48 h 6.87 v -9.02 c -2.78,0 -4.36,-0.21 -4.74,-0.63 -0.38,-0.42 -0.57,-2.47 -0.57,-6.15 z m -48.09,20.31 c -2.03,-0.36 -4,-0.54 -5.89,-0.54 -4.64,0 -8.83,1.07 -12.45,3.19 -4.44,2.59 -7.55,8.61 -8.94,16.85 -3.85,-7.1 -8.94,-12.41 -16.7,-12.86 -0.53,-0.03 -1.07,-0.05 -1.6,-0.05 -5.71,0 -11.09,1.8 -16.3,5.48 0.24,-6.71 -1.42,-13.31 -4.6,-17.12 -2.86,-3.42 -6.25,-5.25 -10.78,-5.74 4.86,-5.28 6.82,-11.32 6.57,-19.43 -0.22,-6.99 -4.42,-12.19 -8.81,-16.24 4.24,-1 7.42,-3.06 9.78,-6.29 3.66,-5.02 4.77,-11.22 3.33,-18.85 4.07,1.53 8.96,2.44 13.63,2.44 3.12,0 5.85,-0.41 8.12,-1.23 5.34,-1.92 9.03,-6.72 11.4,-11.12 2.07,5.52 5.61,11.33 10.83,14.41 2.93,1.73 6.42,2.61 10.38,2.61 3.07,0 6.48,-0.53 10.2,-1.59 -1.11,1.9 -2.01,3.78 -2.7,5.64 H 96.79 v 37.73 c 0,4.81 0.1,8.02 0.3,9.63 0.2,1.62 0.7,3.17 1.5,4.66 0.8,1.49 2.04,2.69 3.73,3.58 1.69,0.9 3.81,1.35 6.36,1.35 0.6,0 1.19,-0.04 1.75,-0.11 0.42,1.21 0.94,2.41 1.6,3.6 z m 6.97,-30.27 c -1.87,1.58 -3.63,3.56 -5.18,6.06 v -13.1 c 1.58,1.06 3.32,1.9 5.18,2.62 z m 0,3.92 v 3.55 c 0,4.58 -0.12,7.29 -0.36,8.14 -0.24,0.84 -0.99,1.27 -2.26,1.27 -1.18,0 -1.9,-0.41 -2.17,-1.22 -0.16,-0.49 -0.27,-1.65 -0.34,-3.45 1.14,-2.86 2.72,-5.75 5.12,-8.28 z m 9.16,37.43 c -5.46,-2.07 -10.6,-2.93 -15.22,-2.93 -6.08,0 -11.26,1.5 -15.05,3.71 -6.68,3.9 -9.16,16.39 -8.92,30.95 -6.14,-16.5 -13.27,-25.16 -23.42,-25.76 -0.58,-0.03 -1.16,-0.05 -1.72,-0.05 -10.24,0 -17.09,5.54 -22.92,11.4 2.77,-9.9 0.2,-21.38 -4.15,-26.58 -3.23,-3.86 -6.83,-6.2 -13.02,-6.2 -2.14,0 -4.6,0.28 -7.45,0.88 11.98,-7.05 14.72,-15.4 14.37,-26.46 -0.32,-10.01 -8.78,-16.59 -15.23,-21.91 10.14,0 14.44,-3.38 17.03,-6.93 5.65,-7.74 4.54,-17.69 1.47,-26.93 4.77,3.7 13.66,6.07 21.38,6.07 3.15,0 6.1,-0.4 8.49,-1.26 8.27,-2.98 14.54,-13.74 16.54,-20.72 0.86,7.92 4.48,20.04 12.7,24.9 3.54,2.09 7.94,3.06 12.77,3.06 6.38,0 13.5,-1.69 20.34,-4.72 -8.29,9.49 -14.89,20.34 -10.86,29.22 0.97,2.13 2.22,3.88 3.71,5.39 v 6.06 c -1.96,-0.83 -3.69,-1.84 -5.18,-3.13 V 55.88 h -3.26 c 1.66,-3.98 4.29,-7.96 7.39,-11.51 C 111.62,47.16 105.42,49 99.96,49 96.66,49 93.63,48.33 91.03,46.78 84.11,42.69 80.13,32.48 79.41,25.8 77.72,31.68 73.36,40.75 66.4,43.25 c -2.02,0.73 -4.5,1.06 -7.16,1.06 -6.5,0 -13.99,-2 -18.01,-5.12 2.59,7.78 3.52,16.17 -1.24,22.69 -2.18,2.99 -5.8,5.84 -14.35,5.84 5.44,4.48 12.56,10.02 12.83,18.45 0.3,9.32 -2.35,15.92 -11.72,22.45 1.97,-0.27 3.72,-0.41 5.3,-0.41 5.19,0 8.48,1.51 11.29,4.87 3.66,4.38 5.19,14.02 2.87,22.36 4.91,-4.94 11.49,-9.71 20.22,-9.71 0.47,0 0.95,0.01 1.43,0.04 8.55,0.5 13.73,7.8 18.9,21.7 -0.2,-12.26 2.72,-22.79 8.34,-26.07 2.99,-1.75 6.65,-2.8 11.02,-2.8 3.86,0 8.27,0.82 13.26,2.71 -3.09,-3.14 -5.09,-6.21 -6.19,-9.27 0.5,-0.18 0.98,-0.4 1.44,-0.65 1.47,-0.8 2.73,-1.97 3.81,-3.46 -0.06,1.29 0.03,2.58 0.26,3.85 v 0 c 0,0 0,0 0,0 0.92,5.11 4.09,10.14 9.45,15.58 z m 7.87,-42.18 v -4.66 c 2.24,0.57 4.58,1.11 7.02,1.66 v 0.92 c -2.59,0.53 -4.92,1.23 -7.02,2.07 z"
     id="path7"
     style="fill:#ffffff;fill-opacity:1" />
  <path
     class="cls-1"
     d="m 318.63,76.15 c -0.71,-0.58 -1.47,-0.95 -2.29,-1.13 -0.82,-0.18 -2.1,-0.26 -3.85,-0.26 h -4.77 c -1.38,0 -2.41,0.09 -3.08,0.29 -0.68,0.19 -1.33,0.55 -1.97,1.07 -0.64,0.52 -1.15,1.25 -1.55,2.21 -0.4,0.95 -0.6,2.1 -0.6,3.43 0,1.59 0.31,2.89 0.93,3.91 0.62,1.02 1.43,1.72 2.45,2.11 1.02,0.39 2.43,0.59 4.24,0.59 h 4.99 c 1.65,0 2.9,-0.11 3.72,-0.32 0.83,-0.22 1.53,-0.57 2.11,-1.08 0.58,-0.5 1.02,-1.21 1.31,-2.12 0.29,-0.91 0.43,-2.02 0.43,-3.33 0,-1.18 -0.17,-2.22 -0.51,-3.12 -0.34,-0.9 -0.86,-1.65 -1.57,-2.22 z m -1.79,6.09 c -0.28,0.12 -0.88,0.18 -1.8,0.18 h -8.8 c -1,0 -1.63,-0.06 -1.89,-0.18 -0.26,-0.12 -0.39,-0.35 -0.39,-0.7 0,-0.35 0.13,-0.58 0.39,-0.69 0.26,-0.11 0.89,-0.16 1.89,-0.16 h 8.99 c 0.84,0 1.39,0.06 1.64,0.17 0.25,0.11 0.38,0.35 0.38,0.7 0,0.35 -0.14,0.57 -0.42,0.69 z"
     id="path8"
     style="fill:#ffffff;fill-opacity:1" />
  <rect
     class="cls-1"
     x="302.11002"
     y="97.540001"
     width="16.65"
     height="14.27"
     id="rect8"
     style="fill:#ffffff;fill-opacity:1" />
</svg>
